<svg width="18" height="19" viewBox="0 0 18 19" fill="none" xmlns="http://www.w3.org/2000/svg">
<g id="maki:arrow">
<path id="Vector" d="M9.95158 2.78494C10.1766 2.55997 10.4818 2.43359 10.8 2.43359C11.1182 2.43359 11.4233 2.55997 11.6484 2.78494L17.0484 8.18494C17.2733 8.40997 17.3997 8.71514 17.3997 9.03334C17.3997 9.35153 17.2733 9.6567 17.0484 9.88174L11.6484 15.2817C11.4221 15.5003 11.1189 15.6213 10.8043 15.6185C10.4897 15.6158 10.1887 15.4896 9.96619 15.2671C9.7437 15.0446 9.6175 14.7437 9.61477 14.429C9.61203 14.1144 9.73299 13.8113 9.95158 13.5849L13.2 10.2333H4.79998C4.48172 10.2333 4.17649 10.1069 3.95145 9.88187C3.7264 9.65682 3.59998 9.3516 3.59998 9.03334C3.59998 8.71508 3.7264 8.40985 3.95145 8.18481C4.17649 7.95977 4.48172 7.83334 4.79998 7.83334H13.2L9.95158 4.48174C9.72661 4.2567 9.60023 3.95153 9.60023 3.63334C9.60023 3.31514 9.72661 3.00997 9.95158 2.78494Z" fill="#B1C1F4"/>
</g>
</svg>
