<svg width="14" height="13" viewBox="0 0 14 13" fill="none" xmlns="http://www.w3.org/2000/svg">
<g id="Light">
<g id="OneArt-&#226;&#128;&#162;-Desktop-&#226;&#128;&#162;-Light">
<g id="Block">
<g id="TVL">
<g id="Icons/Icon-24/cake">
<path id="Oval" d="M7.14454 12.604C10.5908 12.604 13.3845 9.81028 13.3845 6.36402C13.3845 2.91777 10.5908 0.124023 7.14454 0.124023C3.69828 0.124023 0.904541 2.91777 0.904541 6.36402C0.904541 9.81028 3.69828 12.604 7.14454 12.604Z" fill="#F3BA2F"/>
<g id="Icons/icon-24/networks/binance_smart_chain">
<path id="Combined-Shape" fill-rule="evenodd" clip-rule="evenodd" d="M8.76256 7.02687L9.7038 7.96554L7.14503 10.5212L4.58884 7.96554L5.53008 7.02687L7.14503 8.64129L8.76256 7.02687ZM7.45926 5.40934L8.41442 6.36394L7.45926 7.31903L6.50724 6.36701V6.36394L6.67516 6.19654L6.75634 6.1154L7.45926 5.40934ZM3.92641 5.4227L4.86765 6.36394L3.92641 7.30261L2.98523 6.36137L3.92641 5.4227ZM10.3636 5.4227L11.3048 6.36394L10.3636 7.30261L9.42235 6.36137L10.3636 5.4227ZM7.14503 2.2041L9.70073 4.7603L8.75948 5.70154L7.14503 4.08402L5.53008 5.69897L4.58884 4.7603L7.14503 2.2041Z" fill="#131415"/>
</g>
</g>
</g>
</g>
</g>
</g>
</svg>
