<svg width="91" height="90" viewBox="0 0 91 90" fill="none" xmlns="http://www.w3.org/2000/svg">
<g id="wpf:coins" clip-path="url(#clip0_413_4360)">
<path id="Vector" d="M62.9739 0.652876C48.0373 0.652876 35.9289 7.33018 35.9289 15.579C35.9289 23.8279 48.0408 30.5086 62.9739 30.5086C77.9104 30.5086 90.0189 23.8279 90.0189 15.579C90.0189 7.33018 77.9069 0.652876 62.9739 0.652876ZM90.0189 20.0133C90.0119 28.2621 77.9104 34.9429 62.9739 34.9429C48.0789 34.9429 35.9981 28.3348 35.9289 20.124V25.9636C35.9289 29.4875 38.1858 32.7136 41.8827 35.2683C45.6212 36.2859 48.9512 37.6983 51.7239 39.4844C55.1612 40.3567 58.9412 40.8898 62.9739 40.8898C77.9104 40.8898 90.0189 34.2125 90.0189 25.9636V20.0133ZM90.0189 30.3979C90.0189 38.6467 77.9104 45.3275 62.9739 45.3275C61.1566 45.3275 59.3912 45.1925 57.6742 45.0021C59.0291 46.8268 59.9533 48.9344 60.3777 51.1671C61.2396 51.2156 62.0912 51.2744 62.9739 51.2744C77.9104 51.2744 90.0189 44.5971 90.0189 36.3483V30.3979ZM28.3585 38.7263C13.4219 38.7263 1.31348 45.4071 1.31348 53.656C1.31348 61.9048 13.4254 68.5856 28.3585 68.5856C43.295 68.5856 55.4035 61.9048 55.4035 53.656C55.4035 45.4071 43.2916 38.7263 28.3585 38.7263ZM90.0189 40.7825C90.0119 49.0313 77.9104 55.7121 62.9739 55.7121C62.105 55.7121 61.2258 55.6498 60.3777 55.6013C60.3396 55.861 60.3189 56.2071 60.2704 56.4667C60.4435 56.9894 60.5923 57.5052 60.5923 58.0936V61.5552C61.3781 61.5933 62.1673 61.659 62.9739 61.659C77.9104 61.659 90.0189 54.9817 90.0189 46.7329V40.7825ZM90.0189 51.1671C90.0119 59.416 77.9104 66.0967 62.9739 66.0967C62.105 66.0967 61.2258 66.0344 60.3777 65.986C60.3396 66.2456 60.3189 66.5917 60.2704 66.8513C60.4435 67.3706 60.5923 67.8898 60.5923 68.4783V71.9398C61.3781 71.9779 62.1673 72.0436 62.9739 72.0436C77.9104 72.0436 90.0189 65.3663 90.0189 57.1175V51.1671ZM55.4035 58.0902C55.3966 66.339 43.295 73.0198 28.3585 73.0198C13.4635 73.0198 1.38271 66.4117 1.31348 58.1975V64.0406C1.31348 72.2894 13.4185 78.9702 28.3585 78.9702C43.2985 78.9702 55.4035 72.2894 55.4035 64.0406V58.0902ZM55.4035 68.4748C55.3966 76.7236 43.295 83.4044 28.3585 83.4044C13.4635 83.4044 1.38271 76.7963 1.31348 68.5821V74.4252C1.31348 82.674 13.4185 89.3548 28.3585 89.3548C43.2985 89.3548 55.4035 82.674 55.4035 74.4252V68.4748Z" fill="url(#paint0_linear_413_4360)"/>
</g>
<defs>
<linearGradient id="paint0_linear_413_4360" x1="45.6662" y1="0.649414" x2="45.6662" y2="89.3548" gradientUnits="userSpaceOnUse">
<stop stop-color="white"/>
<stop offset="1" stop-color="#4FB5FF"/>
</linearGradient>
<clipPath id="clip0_413_4360">
<rect width="90" height="90" fill="white" transform="translate(0.666504)"/>
</clipPath>
</defs>
</svg>
