<svg width="27" height="31" viewBox="0 0 27 31" fill="none" xmlns="http://www.w3.org/2000/svg">
<g id="Group 3438">
<path id="Vector" d="M17.8564 4.32422H3.63246C1.9491 4.32422 0.584473 5.68882 0.584473 7.37215V27.6917C0.584473 29.375 1.9491 30.7396 3.63246 30.7396H17.8564C19.5398 30.7396 20.9044 29.375 20.9044 27.6917V7.37215C20.9044 5.68882 19.5398 4.32422 17.8564 4.32422Z" fill="#F7F7F7"/>
<path id="Vector_2" d="M27.0003 3.3077V23.6272C26.9979 24.4349 26.676 25.2087 26.1049 25.7798C25.5338 26.3509 24.76 26.6728 23.9523 26.6752H22.9363V7.37161C22.9363 6.02434 22.4011 4.73225 21.4485 3.77959C20.4958 2.82692 19.2037 2.29172 17.8564 2.29172H6.86328C7.07289 1.69885 7.46076 1.18532 7.9737 0.821539C8.48664 0.457758 9.09955 0.261533 9.72839 0.259766H23.9523C24.76 0.262178 25.5338 0.584073 26.1049 1.15515C26.676 1.72623 26.9979 2.50008 27.0003 3.3077Z" fill="#F7F7F7"/>
</g>
</svg>
