<svg width="78" height="60" viewBox="0 0 78 60" fill="none" xmlns="http://www.w3.org/2000/svg">
<path id="Vector" d="M49.426 1.13062L49.4012 1.12631L49.3759 1.1255C49.276 1.12231 49.1766 1.14106 49.0848 1.18043C48.9929 1.21982 48.9107 1.27886 48.8442 1.35341L48.8164 1.38444L48.7965 1.42097C48.1911 2.53094 47.4923 3.95257 46.9891 5.10858C41.4242 4.29639 35.7709 4.29626 30.206 5.1082C29.7019 3.92506 28.9998 2.53251 28.3597 1.42001C28.287 1.28431 28.167 1.21334 28.0787 1.17804C27.9834 1.13992 27.8827 1.12532 27.7922 1.12532H27.7612L27.7306 1.13062C22.3298 2.06676 17.1798 3.68529 12.3527 5.91468C12.2766 5.93589 12.2221 5.97364 12.1953 5.99377C12.1558 6.02335 12.1213 6.05806 12.106 6.07345C12.1048 6.07462 12.1038 6.07569 12.1028 6.07663L12.0777 6.10174L12.058 6.13126C2.24885 20.8089 -0.462096 35.1024 0.870481 49.2461C0.87706 49.4184 0.963542 49.6033 1.14388 49.7089C7.63216 54.4637 13.8716 57.3485 20.0376 59.2599C20.2425 59.3261 20.5523 59.293 20.7026 59.0388C22.1436 57.0556 23.4416 54.9635 24.5603 52.7623L24.5613 52.7601C24.6421 52.5987 24.6518 52.4118 24.5752 52.2458C24.5032 52.0899 24.3678 51.9802 24.2087 51.933C22.2444 51.1739 20.379 50.2808 18.5473 49.253C18.6941 49.1431 18.8399 49.0304 18.9831 48.9198L18.9854 48.918C19.1689 48.7762 19.3481 48.6378 19.5264 48.507C31.925 54.1435 45.297 54.1451 57.5554 48.5087C57.7379 48.6566 57.9195 48.797 58.0975 48.9345L58.0994 48.9359C58.2511 49.0532 58.4002 49.1684 58.5485 49.2869C56.7514 50.3444 54.8508 51.2061 52.8756 51.9691C52.6731 52.0302 52.56 52.1876 52.5109 52.325C52.4625 52.4606 52.4594 52.6153 52.5039 52.7488L52.5132 52.7765L52.5267 52.8023C53.6833 55.0071 54.9841 57.1026 56.3925 59.0889L56.4608 59.1851L56.5727 59.2224C56.5779 59.2242 56.5837 59.2262 56.59 59.2283C56.6837 59.2604 56.8949 59.3327 57.1192 59.2599C63.3212 57.3485 69.5605 54.4636 76.0487 49.7089C76.2287 49.6034 76.3152 49.4189 76.322 49.2468C77.9066 32.9021 73.6812 18.7168 65.133 6.12904L65.1139 6.10078L65.0897 6.07662L65.0853 6.07219C65.0481 6.03473 64.952 5.93792 64.79 5.90809C60.0014 3.6817 54.8206 2.06567 49.426 1.13062ZM32.5284 33.0336V33.0367C32.5284 37.078 29.6362 40.2855 26.1052 40.2855C22.6437 40.2855 19.6819 37.0754 19.6819 33.0367C19.6819 28.9953 22.5742 25.7879 26.1052 25.7879C29.6725 25.7879 32.563 29.0311 32.5284 33.0336ZM57.5465 33.0336V33.0367C57.5465 37.0793 54.689 40.2855 51.1232 40.2855C47.6617 40.2855 44.7 37.0754 44.7 33.0367C44.7 28.9953 47.5922 25.7879 51.1232 25.7879C54.6905 25.7879 57.581 29.0311 57.5465 33.0336Z" fill="#F4F4F5" stroke="#F2F5FF" stroke-width="0.721375"/>
</svg>
