<svg width="18" height="18" viewBox="0 0 18 18" fill="none" xmlns="http://www.w3.org/2000/svg">
<path d="M7.22699 4.01388C6.96599 5.16587 7.72199 7.12787 8.99999 7.12787C10.269 7.12787 11.025 5.16587 10.764 4.01388C10.566 3.13188 9.79199 2.54688 8.99999 2.54688C8.19899 2.54688 7.43399 3.13188 7.22699 4.01388ZM3.50999 4.82388C3.28499 5.79588 3.93299 7.46088 5.01299 7.46088C6.09299 7.46088 6.74099 5.79588 6.51599 4.82388C6.34499 4.07688 5.68799 3.57288 5.01299 3.57288C4.33799 3.57288 3.68099 4.07688 3.50999 4.82388ZM11.484 4.82388C11.259 5.79588 11.907 7.46088 12.978 7.46088C14.058 7.46088 14.706 5.79588 14.481 4.82388C14.31 4.07688 13.653 3.57288 12.978 3.57288C12.312 3.57288 11.655 4.07688 11.484 4.82388ZM10.953 15.1109L12.078 11.2409C12.78 8.99987 11.439 7.62288 8.99999 7.62288C6.55199 7.62288 5.21099 8.99987 5.90399 11.2409L7.03799 15.1109C7.24499 15.7589 8.09999 16.1999 8.99999 16.1999C9.88199 16.1999 10.746 15.7589 10.953 15.1109ZM5.46299 8.24387C5.02199 8.84687 4.59899 9.89087 5.08499 11.4749L6.09299 14.8859C5.78699 15.0659 5.39999 15.1649 5.01299 15.1649C4.24799 15.1649 3.52799 14.7959 3.34799 14.2379L2.38499 10.9529C1.79999 9.05387 2.93399 7.89288 5.01299 7.89288C5.25599 7.89288 5.49899 7.91087 5.72399 7.94687C5.63399 8.03687 5.54399 8.14487 5.46299 8.24387ZM12.978 7.89288C15.057 7.89288 16.2 9.05387 15.606 10.9529L14.643 14.2379C14.463 14.7959 13.743 15.1649 12.978 15.1649C12.591 15.1649 12.204 15.0659 11.898 14.8859L12.897 11.4929C13.392 9.89088 12.969 8.84687 12.519 8.24387C12.447 8.14487 12.357 8.03687 12.267 7.94687C12.492 7.91087 12.726 7.89288 12.978 7.89288Z"/>
</svg>
