<svg width="18" height="18" viewBox="0 0 18 18" fill="none" xmlns="http://www.w3.org/2000/svg">
<path d="M16.6377 8.8765L9.39729 1.64134C9.34516 1.58911 9.28323 1.54767 9.21507 1.51939C9.1469 1.49112 9.07382 1.47656 9.00002 1.47656C8.92622 1.47656 8.85315 1.49112 8.78498 1.51939C8.71681 1.54767 8.65489 1.58911 8.60276 1.64134L1.36233 8.8765C1.15139 9.08744 1.03186 9.37396 1.03186 9.67279C1.03186 10.2933 1.53635 10.7978 2.15686 10.7978H2.91975V15.9605C2.91975 16.2716 3.17112 16.523 3.48225 16.523H7.87502V12.5855H9.84377V16.523H14.5178C14.8289 16.523 15.0803 16.2716 15.0803 15.9605V10.7978H15.8432C16.142 10.7978 16.4285 10.68 16.6395 10.4673C17.0772 10.0279 17.0772 9.31595 16.6377 8.8765Z"/>
</svg>
