<svg width="64" height="64" viewBox="0 0 64 64" fill="none" xmlns="http://www.w3.org/2000/svg">
<path id="Vector" d="M35.3867 23.4524L20.1817 1.16878L20.0743 1.01138H19.8837H2.04285H1.36018L1.74489 1.57533L24.9808 35.6372L1.7686 62.8099L1.26036 63.4049H2.04285H7.32903H7.49533L7.60332 63.2784L27.7457 39.6908L43.8185 63.2475L43.9259 63.4049H44.1165H61.9573H62.6401L62.2553 62.8409L38.1515 27.5104L60.2757 1.60632L60.7839 1.01138H60.0015H54.7153H54.549L54.441 1.13785L35.3867 23.4524ZM30.7568 35.7557L30.7568 35.7556L28.3868 32.3417L9.92151 5.74145H17.162L32.2698 27.5109L32.2699 27.5109L34.6398 30.9249L54.0303 58.8599H46.7897L30.7568 35.7557Z" fill="#F4F4F5" stroke="#F2F5FF" stroke-width="0.721375"/>
</svg>
