<svg width="91" height="90" viewBox="0 0 91 90" fill="none" xmlns="http://www.w3.org/2000/svg">
<g id="dashicons:admin-links">
<path id="Vector" d="M80.1634 12.4189C83.7951 16.0635 85.8343 20.9988 85.8343 26.1439C85.8343 31.289 83.7951 36.2244 80.1634 39.8689L73.2784 46.7089C68.2384 51.7489 61.1284 53.3239 54.6484 51.6139L66.4384 39.8689L69.8584 36.4039L73.2784 32.9839C77.0584 29.2039 77.0584 23.0839 73.2784 19.3039C72.3862 18.395 71.3217 17.6731 70.1473 17.1802C68.9729 16.6874 67.712 16.4336 66.4384 16.4336C65.1647 16.4336 63.9039 16.6874 62.7295 17.1802C61.555 17.6731 60.4906 18.395 59.5984 19.3039L56.1334 22.7239L40.9234 37.9339C39.2584 31.4539 40.8334 24.3439 45.8734 19.3039L52.7134 12.4189C56.3579 8.78723 61.2933 6.74805 66.4384 6.74805C71.5835 6.74805 76.5188 8.78723 80.1634 12.4189ZM38.9884 60.4339L63.0184 36.4039C64.9084 34.5139 64.9084 31.4539 63.0184 29.5639C61.0384 27.6289 57.9334 27.8089 56.1334 29.5639L32.1484 53.5939C30.2584 55.4839 30.2584 58.5439 32.1484 60.4339C34.1284 62.3689 37.2334 62.1889 38.9884 60.4339ZM35.5684 70.7389L54.1984 52.0639C55.9084 58.5439 54.3334 65.6539 49.2934 70.6939L42.4534 77.5789C38.8088 81.2106 33.8735 83.2498 28.7284 83.2498C23.5833 83.2498 18.6479 81.2106 15.0034 77.5789C11.3717 73.9344 9.33252 68.999 9.33252 63.8539C9.33252 58.7088 11.3717 53.7735 15.0034 50.1289L21.8884 43.2889C26.9284 38.2489 34.0384 36.6739 40.5184 38.3389L21.8884 57.0139C18.0634 60.7939 18.0634 66.9139 21.8884 70.7389C25.6684 74.5189 31.7884 74.5189 35.5684 70.7389Z" fill="url(#paint0_linear_413_4344)"/>
</g>
<defs>
<linearGradient id="paint0_linear_413_4344" x1="47.5834" y1="6.74805" x2="47.5834" y2="83.2498" gradientUnits="userSpaceOnUse">
<stop stop-color="white"/>
<stop offset="1" stop-color="#4FB5FF"/>
</linearGradient>
</defs>
</svg>
